<svg xmlns="http://www.w3.org/2000/svg" width="504.003" height="278.757" viewBox="0 0 504.003 278.757">
    <g id="undraw_task_list_6x9d" transform="translate(0 0)">
        <path id="Path_2170"
              d="M626.117,611.3H348.626a6.133,6.133,0,0,1-6.126-6.126V443.626a6.133,6.133,0,0,1,6.126-6.126H626.117a6.134,6.134,0,0,1,6.126,6.126V605.171A6.134,6.134,0,0,1,626.117,611.3Z"
              transform="translate(-305.381 -372.449)" fill="#e6e6e6"/>
        <path id="Path_2171"
              d="M639.087,627.343H327v-206.5A6.855,6.855,0,0,1,333.847,414H632.24a6.855,6.855,0,0,1,6.847,6.847ZM328.441,625.9h309.2V420.847a5.412,5.412,0,0,0-5.406-5.406H333.847a5.412,5.412,0,0,0-5.406,5.406Z"
              transform="translate(-301.053 -365.886)" fill="#ccc"/>
        <circle id="Ellipse_82" cx="2.883" cy="2.883" r="2.883" transform="translate(179.108 54.24)" fill="#e6e6e6"/>
        <path id="Path_2172"
              d="M583.732,590.3H444.626a6.133,6.133,0,0,1-6.126-6.126V491.192a6.133,6.133,0,0,1,6.126-6.126H583.732a6.134,6.134,0,0,1,6.126,6.126V584.17A6.134,6.134,0,0,1,583.732,590.3Z"
              transform="translate(-332.189 -385.731)" fill="#fff"/>
        <path id="Path_2173" d="M476.516,535.6a5.766,5.766,0,1,1,5.766-5.766,5.766,5.766,0,0,1-5.766,5.766Z"
              transform="translate(-341.194 -396.622)" fill="#ccc"/>
        <path id="Path_2174" d="M476.516,561.6a5.766,5.766,0,1,1,5.766-5.766,5.766,5.766,0,0,1-5.766,5.766Z"
              transform="translate(-341.194 -403.882)" fill="#ffc107"/>
        <path id="Path_2175" d="M476.516,587.6a5.766,5.766,0,1,1,5.766-5.766,5.766,5.766,0,0,1-5.766,5.766Z"
              transform="translate(-341.194 -411.143)" fill="#009688"/>
        <path id="Path_2176" d="M514.935,525.566a4.685,4.685,0,1,0,0,9.37h67.03a4.685,4.685,0,0,0,0-9.37Z"
              transform="translate(-352.225 -397.041)" fill="#ccc"/>
        <path id="Path_2177" d="M514.935,551.566a4.685,4.685,0,1,0,0,9.37h67.03a4.685,4.685,0,0,0,0-9.37Z"
              transform="translate(-352.225 -404.301)" fill="#ffc107"/>
        <path id="Path_2178" d="M514.935,577.566a4.685,4.685,0,1,0,0,9.37h67.03a4.685,4.685,0,0,0,0-9.37Z"
              transform="translate(-352.225 -411.562)" fill="#009688"/>
        <path id="Path_2179" d="M658.458,362.04l-8.835-.148-3.632-34.149,13.04.219Z"
              transform="translate(-180.39 -91.521)" fill="#ffb8b8"/>
        <path id="Path_2180" d="M10.73,0H27.771V10.73H0A10.73,10.73,0,0,1,10.73,0Z"
              transform="translate(452.239 267.559) rotate(0.963)" fill="#2f2e41"/>
        <path id="Path_2181" d="M538.468,361.08l-8.191-3.316,8.89-33.171,12.089,4.894Z"
              transform="translate(-148.077 -90.641)" fill="#ffb8b8"/>
        <path id="Path_2182" d="M10.73,0H27.771V10.73H0A10.73,10.73,0,0,1,10.73,0Z"
              transform="translate(367.353 258.391) rotate(22.038)" fill="#2f2e41"/>
        <path id="Path_2183"
              d="M859.372,541.609,833.425,610.08l-10.811,47.57,11.532,5.766,52.615-102.347,19.46,102.707h11.532s5.273-121.818-2.409-131.363Z"
              transform="translate(-439.451 -398.953)" fill="#2f2e41"/>
        <circle id="Ellipse_83" cx="20.305" cy="20.305" r="20.305" transform="translate(367.449 177.013)"
                fill="#009688"/>
        <path id="Path_2184" d="M533.139,279.187,526.7,270.9l3.748-2.915,3.051,3.923L543.8,261.028l3.447,3.266Z"
              transform="translate(-147.077 -72.891)" fill="#fff"/>
        <circle id="Ellipse_84" cx="23.785" cy="23.785" r="23.785" transform="translate(408.75 0.307)" fill="#2f2e41"/>
        <path id="Path_2185"
              d="M840.683,561.984a7.743,7.743,0,0,0,2.769-11.545l18.043-99.853-16.837-.222-12.529,98.742a7.785,7.785,0,0,0,8.555,12.879Z"
              transform="translate(-441.342 -376.041)" fill="#ffb8b8"/>
        <path id="Path_2186"
              d="M966.56,539.977a7.745,7.745,0,0,0-3.723-11.489l-32.219-78.26a14.258,14.258,0,0,0-20.711-6.681h0L952.58,533.47a7.785,7.785,0,0,0,13.98,6.508Z"
              transform="translate(-463.827 -373.537)" fill="#ffb8b8"/>
        <circle id="Ellipse_85" cx="17.702" cy="17.702" r="17.702" transform="translate(415.304 15.35)" fill="#ffb8b8"/>
        <path id="Path_2187"
              d="M855.957,430.095c10.21-4.251,27.838-8.452,47.412.7a17.926,17.926,0,0,1,9.594,11.09l8.375,28.014-10.811,10.811,10.09,22.343s-38.56,23.425-55.859,9.009l-10.451-37.119-13.694-3.6,4.672-27.757a17.794,17.794,0,0,1,10.671-13.494Z"
              transform="translate(-444.477 -369.052)" fill="#ccc"/>
        <path id="Path_2188"
              d="M868.8,371.036a52.646,52.646,0,0,0,22.775,7.5l-2.4-2.877a17.639,17.639,0,0,0,5.45,1.082,5.968,5.968,0,0,0,4.865-2.277,5.551,5.551,0,0,0,.372-5.128,10.514,10.514,0,0,0-3.308-4.136,19.693,19.693,0,0,0-18.329-3.276,11.771,11.771,0,0,0-5.475,3.512,6.657,6.657,0,0,0-1.342,6.17"
              transform="translate(-452.347 -351.074)" fill="#2f2e41"/>
        <path id="Path_2189"
              d="M859.357,351.456c-.288-3.027-4-4.891-6.9-3.976s-4.8,3.835-5.38,6.82a9.785,9.785,0,0,0,1.319,7.387,6.731,6.731,0,0,0,6.672,2.891c2.868-.611,4.855-3.412,5.424-6.289s0-5.843-.56-8.721"
              transform="translate(-446.219 -347.246)" fill="#2f2e41"/>
        <path id="Path_2190"
              d="M927.357,353.456c-.288-3.027-4-4.891-6.9-3.976s-4.8,3.834-5.38,6.82a9.784,9.784,0,0,0,1.319,7.387,6.732,6.732,0,0,0,6.672,2.891c2.868-.611,4.855-3.412,5.424-6.289s0-5.843-.56-8.721"
              transform="translate(-465.208 -347.804)" fill="#2f2e41"/>
        <path id="Path_2191"
              d="M634.44,695.045H621.826v-2.162A2.883,2.883,0,0,0,618.943,690H603.807a2.883,2.883,0,0,0-2.883,2.883v2.162h-2.162v-2.162A2.883,2.883,0,0,0,595.879,690H580.743a2.883,2.883,0,0,0-2.883,2.883v2.162H575.7v-2.162A2.883,2.883,0,0,0,572.815,690H557.679a2.883,2.883,0,0,0-2.883,2.883v2.162h-2.162v-2.162A2.883,2.883,0,0,0,549.751,690H534.615a2.883,2.883,0,0,0-2.883,2.883v2.162H529.57v-2.162A2.883,2.883,0,0,0,526.687,690H511.551a2.883,2.883,0,0,0-2.883,2.883v2.162h-2.162v-2.162A2.883,2.883,0,0,0,503.623,690H488.487a2.883,2.883,0,0,0-2.883,2.883v2.162h-2.162v-2.162A2.883,2.883,0,0,0,480.558,690H465.423a2.883,2.883,0,0,0-2.883,2.883v2.162h-2.162v-2.162A2.883,2.883,0,0,0,457.494,690H442.358a2.883,2.883,0,0,0-2.883,2.883v2.162h-2.162v-2.162A2.883,2.883,0,0,0,434.43,690H419.294a2.883,2.883,0,0,0-2.883,2.883v2.162h-2.162v-2.162A2.883,2.883,0,0,0,411.366,690H396.23a2.883,2.883,0,0,0-2.883,2.883v2.162h-2.162v-2.162A2.883,2.883,0,0,0,388.3,690H373.166a2.883,2.883,0,0,0-2.883,2.883v2.162h-2.162v-2.162A2.883,2.883,0,0,0,365.238,690H350.1a2.883,2.883,0,0,0-2.883,2.883v2.162h-2.162v-2.162A2.883,2.883,0,0,0,342.174,690H327.038a2.883,2.883,0,0,0-2.883,2.883v2.162H311.542A20.542,20.542,0,0,0,291,715.587h0a6.127,6.127,0,0,0,6.126,6.127H648.855a6.127,6.127,0,0,0,6.126-6.127h0a20.541,20.541,0,0,0-20.542-20.541Z"
              transform="translate(-291 -442.958)" fill="#3f3d56"/>
    </g>
</svg>
