<svg xmlns="http://www.w3.org/2000/svg" width="536.508" height="390.325" viewBox="0 0 536.508 390.325">
    <g id="undraw_QA_engineers_dg5p" transform="translate(-0.01 0)">
        <path id="Path_2352"
              d="M591.275,407.856c-13.289,27.423-40.286,45.76-68.254,57.852a251.827,251.827,0,0,1-70.27,18.752q-6.954.826-13.954,1.281a270.636,270.636,0,0,1-35.808-.04q-10.757-.715-21.439-2.286a270.394,270.394,0,0,1-71.681-20.873q-9.876-4.448-19.352-9.711a247.578,247.578,0,0,1-30.25-19.783q-3.182-2.432-6.284-4.968l-.851-.7c-1.626-1.341-3.237-2.712-4.873-4.043a70.849,70.849,0,0,0-8.636-6.194c-.205-.12-.41-.24-.62-.355-.56-.325-1.131-.63-1.711-.921a39.2,39.2,0,0,0-3.672-1.621,48.1,48.1,0,0,0-18.242-2.867c-1.041,0-2.081.07-3.127.14h0c-1.461.1-2.927.25-4.388.44l-.54.075A99.448,99.448,0,0,0,193.549,415c-6.975,2-13.824,4.5-20.718,6.759h0c-2.927.966-5.859,1.886-8.816,2.712l-.65.18a96.5,96.5,0,0,1-12.813,2.682,71.4,71.4,0,0,1-29.324-2.362l-.33-.1-.61-.18-.836-.26q-2.1-.66-4.168-1.446l-.836-.32q-2-.771-3.918-1.656l-.836-.38q-2-.931-3.918-1.966c-.46-.24-.916-.5-1.366-.746q-2.041-1.141-4-2.392-2.081-1.326-4.073-2.767-.921-.66-1.821-1.356a80.724,80.724,0,0,1-9.691-8.741c-.165-.165-.32-.335-.475-.5-.8-.861-1.576-1.736-2.332-2.632-.28-.33-.56-.66-.836-1q-1.346-1.641-2.6-3.357c-.125-.165-.245-.335-.365-.5a72.342,72.342,0,0,1-8.44-15.26c-.07-.165-.135-.335-.2-.5q-1-2.577-1.826-5.238c-.225-.74-.44-1.5-.63-2.241-.065-.22-.125-.445-.18-.665-2.762-10.872-3.077-22.174-3.077-33.412v-3.928c.08-18.177.36-36.664,3.042-54.59a2.279,2.279,0,0,1,.055-.37,170.491,170.491,0,0,1,3.657-17.922,132.208,132.208,0,0,1,6.159-18.162c6.169-14.509,15.14-27.713,25.1-39.951a225.21,225.21,0,0,1,41.091-39.525q3.3-2.417,6.694-4.693l1.046-.685c.365-.245.73-.5,1.1-.715h0c.75-.5,1.5-.971,2.261-1.446l.851-.53,1.621-1,.5-.285.866-.5.856-.5q1.5-.886,3.037-1.731,6.559-3.657,13.429-6.684,2.026-.9,4.078-1.726a143.817,143.817,0,0,1,19.087-6.259q3.6-.911,7.25-1.6,4.3-.831,8.651-1.376a137.276,137.276,0,0,1,13.9-1.036c32.681-.8,65.692,9.841,91.3,30.229,10.207,8.125,19.378,17.746,30.84,23.975,10.006,5.423,21.719,7.67,32.436,3.4,8.856-3.527,14.619-5.278,24.566-4.743a205.913,205.913,0,0,1,60.194,12.588c.78.285,1.561.58,2.336.876,50.387,19.287,93.711,57.587,116.215,106.8q.891,1.951,1.736,3.933C601.247,340.548,606.09,377.3,591.275,407.856Z"
              transform="translate(-63.845 -95.99)" fill="#009688" opacity="0.1"/>
        <path id="Path_2353"
              d="M163.985,316.638v189.7l-.65.18a96.487,96.487,0,0,1-12.813,2.682,71.4,71.4,0,0,1-29.324-2.361l-.33-.1-.61-.18-.836-.26q-2.1-.66-4.168-1.446l-.836-.32q-2-.77-3.918-1.656l-.836-.38q-2-.931-3.918-1.966c-.46-.24-.916-.5-1.366-.745q-2.041-1.141-4-2.392-2.081-1.326-4.073-2.767-.921-.66-1.821-1.356a80.731,80.731,0,0,1-9.691-8.741c-.165-.165-.32-.335-.475-.5-.8-.861-1.576-1.736-2.332-2.632-.28-.33-.56-.66-.836-1q-1.346-1.641-2.6-3.357c-.125-.165-.245-.335-.365-.5a72.342,72.342,0,0,1-8.44-15.26c-.07-.165-.135-.335-.2-.5q-1-2.577-1.826-5.238c-.225-.74-.44-1.5-.63-2.241-.065-.22-.125-.445-.18-.665-2.762-10.872-3.077-22.174-3.077-33.412V415.3c.08-18.177.36-36.664,3.042-54.59a2.278,2.278,0,0,1,.055-.37,170.492,170.492,0,0,1,3.657-17.922h51.093V316.638h10.187V295.93H153.8v20.708Z"
              transform="translate(-63.83 -177.854)" fill="#009688" opacity="0.1"/>
        <path id="Path_2354"
              d="M760.806,473.266c-13.289,27.423-40.286,45.76-68.254,57.852a251.823,251.823,0,0,1-70.27,18.752q-6.954.826-13.954,1.281a270.647,270.647,0,0,1-35.808-.04q-10.757-.716-21.439-2.286A270.394,270.394,0,0,1,479.4,527.951q-9.876-4.448-19.352-9.711A247.593,247.593,0,0,1,429.8,498.457q-3.182-2.432-6.284-4.968l-.851-.7c-1.626-1.341-3.237-2.712-4.873-4.043a70.852,70.852,0,0,0-8.636-6.194c-.205-.12-.41-.24-.62-.355-.56-.325-1.131-.63-1.711-.921a39.192,39.192,0,0,0-3.672-1.621v-77.6H496v17.276h40.751V292.959h47.966v50.533h23.725V313.573h19.6V281.612h9.006V263c.78.285,1.561.58,2.336.876v17.736h8.766v31.981h19.588v29.919h28.884V457.5h45.91V374.6h14.795C770.777,405.957,775.62,442.706,760.806,473.266Z"
              transform="translate(-233.376 -161.4)" fill="#009688" opacity="0.1"/>
        <rect id="Rectangle_656" width="21.439" height="21.439" transform="translate(317.715 150.577)" fill="#009688"
              opacity="0.1"/>
        <rect id="Rectangle_657" width="21.439" height="21.439" transform="translate(317.715 195.016)" fill="#009688"
              opacity="0.1"/>
        <rect id="Rectangle_658" width="21.439" height="21.439" transform="translate(317.715 239.459)" fill="#009688"
              opacity="0.1"/>
        <rect id="Rectangle_659" width="21.439" height="21.439" transform="translate(317.715 283.903)" fill="#009688"
              opacity="0.1"/>
        <rect id="Rectangle_660" width="21.439" height="21.439" transform="translate(317.715 328.342)" fill="#009688"
              opacity="0.1"/>
        <path id="Path_2355" d="M720.279,805v16.931q-10.757-.715-21.439-2.287V805Z"
              transform="translate(-381.125 -432.225)" fill="#009688" opacity="0.1"/>
        <rect id="Rectangle_661" width="75.043" height="9.711" transform="translate(176.844 268.363)" fill="#009688"
              opacity="0.1"/>
        <rect id="Rectangle_662" width="75.043" height="9.711" transform="translate(176.844 297.857)" fill="#009688"
              opacity="0.1"/>
        <path id="Path_2356"
              d="M499.894,714.21v9.706H444.438q-3.182-2.432-6.284-4.968l-.851-.7c-1.626-1.341-3.237-2.712-4.873-4.043Z"
              transform="translate(-248.006 -386.859)" fill="#009688" opacity="0.1"/>
        <path id="Path_2357" d="M542.1,773.15v9.711h-5.854q-9.876-4.448-19.353-9.711Z"
              transform="translate(-290.209 -416.31)" fill="#009688" opacity="0.1"/>
        <rect id="Rectangle_663" width="13.954" height="13.954" transform="translate(374.962 208.629)" fill="#009688"
              opacity="0.1"/>
        <rect id="Rectangle_664" width="13.954" height="13.954" transform="translate(72.767 143.598)" fill="#009688"
              opacity="0.1"/>
        <rect id="Rectangle_665" width="13.954" height="13.954" transform="translate(72.767 176.018)" fill="#009688"
              opacity="0.1"/>
        <rect id="Rectangle_666" width="13.954" height="13.954" transform="translate(72.767 208.434)" fill="#009688"
              opacity="0.1"/>
        <rect id="Rectangle_667" width="13.954" height="13.954" transform="translate(72.767 240.855)" fill="#009688"
              opacity="0.1"/>
        <rect id="Rectangle_668" width="13.954" height="13.954" transform="translate(72.767 273.276)" fill="#009688"
              opacity="0.1"/>
        <rect id="Rectangle_669" width="13.954" height="13.954" transform="translate(72.767 305.692)" fill="#009688"
              opacity="0.1"/>
        <rect id="Rectangle_670" width="13.954" height="13.954" transform="translate(428.241 208.629)" fill="#009688"
              opacity="0.1"/>
        <rect id="Rectangle_671" width="13.954" height="13.954" transform="translate(374.962 243.052)" fill="#009688"
              opacity="0.1"/>
        <rect id="Rectangle_672" width="13.954" height="13.954" transform="translate(428.241 243.052)" fill="#009688"
              opacity="0.1"/>
        <rect id="Rectangle_673" width="13.954" height="13.954" transform="translate(374.962 277.479)" fill="#009688"
              opacity="0.1"/>
        <rect id="Rectangle_674" width="13.954" height="13.954" transform="translate(428.241 277.479)" fill="#009688"
              opacity="0.1"/>
        <rect id="Rectangle_675" width="13.954" height="13.954" transform="translate(374.962 311.906)" fill="#009688"
              opacity="0.1"/>
        <rect id="Rectangle_676" width="13.954" height="13.954" transform="translate(428.241 311.906)" fill="#009688"
              opacity="0.1"/>
        <rect id="Rectangle_677" width="13.954" height="13.954" transform="translate(374.962 346.328)" fill="#009688"
              opacity="0.1"/>
        <rect id="Rectangle_678" width="13.954" height="13.954" transform="translate(428.241 346.328)" fill="#009688"
              opacity="0.1"/>
        <path id="Path_2358" d="M749.43,770.011v-9h13.954v7.72Z" transform="translate(-374.468 -380.26)" fill="#009688"
              opacity="0.1"/>
        <path id="Path_2359"
              d="M69.93,424.68v8.005H123.3V424.68Zm4.753,7.5H70.766v-7h3.918Zm4.753,0H75.519v-7h3.918Zm4.753,0H80.272v-7h3.918Zm4.753,0H85.025v-7h3.918Zm4.753,0H89.778v-7H93.7Zm4.753,0H94.531v-7h3.918Zm4.753,0H99.284v-7H103.2Zm4.753,0h-3.918v-7h3.918Zm4.753,0H108.79v-7h3.918Zm4.753,0h-3.918v-7h3.918Zm5,0H118.3v-7h4.168Z"
              transform="translate(-66.873 -242.187)" fill="#009688" opacity="0.1"/>
        <path id="Path_2360"
              d="M69.93,471.14v7.98H123.3v-7.98Zm4.753,7.48H70.766V471.64h3.918Zm4.753,0H75.519V471.64h3.918Zm4.753,0H80.272V471.64h3.918Zm4.753,0H85.025V471.64h3.918Zm4.753,0H89.778V471.64H93.7Zm4.753,0H94.531V471.64h3.918Zm4.753,0H99.284V471.64H103.2Zm4.753,0h-3.918V471.64h3.918Zm4.753,0H108.79V471.64h3.918Zm4.753,0h-3.918V471.64h3.918Zm5,0H118.3V471.64h4.168Z"
              transform="translate(-66.873 -265.402)" fill="#009688" opacity="0.1"/>
        <path id="Path_2361"
              d="M69.93,517.59v7.98H123.3v-7.98Zm4.753,7.48H70.766V518.09h3.918Zm4.753,0H75.519V518.09h3.918Zm4.753,0H80.272V518.09h3.918Zm4.753,0H85.025V518.09h3.918Zm4.753,0H89.778V518.09H93.7Zm4.753,0H94.531V518.09h3.918Zm4.753,0H99.284V518.09H103.2Zm4.753,0h-3.918V518.09h3.918Zm4.753,0H108.79V518.09h3.918Zm4.753,0h-3.918V518.09h3.918Zm5,0H118.3V518.09h4.168Z"
              transform="translate(-66.873 -288.612)" fill="#009688" opacity="0.1"/>
        <path id="Path_2362"
              d="M69.93,564v8.005H123.3V564Zm4.753,7.5H70.766v-7h3.918Zm4.753,0H75.519v-7h3.918Zm4.753,0H80.272v-7h3.918Zm4.753,0H85.025v-7h3.918Zm4.753,0H89.778v-7H93.7Zm4.753,0H94.531v-7h3.918Zm4.753,0H99.284v-7H103.2Zm4.753,0h-3.918v-7h3.918Zm4.753,0H108.79v-7h3.918Zm4.753,0h-3.918v-7h3.918Zm5,0H118.3v-7h4.168Z"
              transform="translate(-66.873 -311.802)" fill="#009688" opacity="0.1"/>
        <path id="Path_2363"
              d="M70.34,610.49c.19.75.405,1.5.63,2.241V610.99h3.918v7H72.8c.06.165.125.335.2.5h50.533V610.49Zm9.3,7.5H75.723v-7h3.918Zm4.753,0H80.477v-7h3.918Zm4.753,0H85.23v-7h3.918Zm4.753,0H89.983v-7H93.9Zm4.753,0H94.736v-7h3.918Zm4.753,0H99.489v-7h3.918Zm4.753,0h-3.918v-7h3.918Zm4.753,0h-3.918v-7h3.918Zm4.753,0h-3.918v-7h3.918Zm5,0H118.5v-7h4.168Z"
              transform="translate(-67.078 -335.032)" fill="#009688" opacity="0.1"/>
        <path id="Path_2364"
              d="M92.51,656.94c.12.165.24.335.365.5h2.6V660.8c.275.335.555.665.836,1v-4.353h3.918v7H98.639c.155.165.31.335.475.5h35.468v-8.005Zm12.468,7.5h-3.918v-7h3.918Zm4.753,0h-3.918v-7h3.918Zm4.753,0h-3.918v-7h3.918Zm4.753,0H115.32v-7h3.918Zm4.753,0h-3.918v-7h3.918Zm4.753,0h-3.918v-7h3.918Zm5,0h-4.168v-7h4.168Z"
              transform="translate(-78.156 -358.242)" fill="#009688" opacity="0.1"/>
        <path id="Path_2365"
              d="M144.87,703.39c.45.255.906.5,1.366.745v-.245h3.918V706.1l.836.38V703.89h3.918v4.248l.836.32V703.89h4.168v6l.836.26V703.39Z"
              transform="translate(-104.319 -381.452)" fill="#009688" opacity="0.1"/>
        <path id="Path_2366"
              d="M463.179,286.154s-11.928-.72-10.507,7.635a2.041,2.041,0,0,0,1.061,2.151s0-.62,1.221-.41a5.576,5.576,0,0,0,1.3.06,2.7,2.7,0,0,0,1.586-.65h0s3.352-1.386,4.658-6.864c0,0,.961-1.2.926-1.5l-2,.861a3.6,3.6,0,0,1,.15,2.657s-.065-2.6-.455-2.542c-.075,0-1.046.5-1.046.5s1.186,2.532.29,4.368c0,0,.34-3.112-.655-4.183l-1.451.836s1.386,2.612.445,4.743c0,0,.245-3.267-.74-4.538l-1.286,1s1.3,2.572.5,4.343c0,0-.105-3.807-.786-4.1a7.715,7.715,0,0,0-1.3,1.4s.891,1.866.34,2.852c0,0-.34-2.532-.62-2.547a8.431,8.431,0,0,0-1.231,2.832,6.094,6.094,0,0,1,.961-3,3.362,3.362,0,0,0-1.711.886s.175-1.186,2-1.291A7.808,7.808,0,0,1,456,290.3a7.372,7.372,0,0,0-2.9.335s.966-1.121,3.232-.61l1.266-1.036a10.428,10.428,0,0,0-3.382.035s1.156-1,3.722-.27l1.381-.826a12.6,12.6,0,0,0-3.232-.28,4.957,4.957,0,0,1,3.637.06l1-.445s-1.5-.29-1.916-.335-.46-.165-.46-.165a5.143,5.143,0,0,1,2.787.31A12.6,12.6,0,0,0,463.179,286.154Z"
              transform="translate(-258.062 -172.962)" fill="#009688" opacity="0.1"/>
        <path id="Path_2367"
              d="M410.224,367.34s-4.078,11.227,4.338,12.253a2.036,2.036,0,0,0,2.357-.405s-.585-.2-.045-1.291a5.7,5.7,0,0,0,.43-1.221,2.707,2.707,0,0,0-.18-1.706h0s-.375-3.607-5.258-6.414c0,0-.871-1.266-1.176-1.316l.25,2.176a3.606,3.606,0,0,1,2.592.61s-2.5-.675-2.567-.285c0,.075.185,1.146.185,1.146s2.762-.42,4.268.961c0,0-2.892-1.211-4.2-.555l.39,1.591s2.9-.58,4.673.921c0,0-3.062-1.156-4.563-.575l.6,1.5s2.837-.5,4.308.745c0,0-3.682-1-4.148-.41a7.876,7.876,0,0,0,.971,1.636s2.046-.32,2.832.5c0,0-2.527-.4-2.617-.135a8.625,8.625,0,0,0,2.366,2,6.125,6.125,0,0,1-2.6-1.776,3.362,3.362,0,0,0,.365,1.9s-1.091-.5-.675-2.276a7.659,7.659,0,0,1-.961-1.5,7.257,7.257,0,0,0-.5,2.877s-.8-1.246.33-3.272l-.63-1.5a10.125,10.125,0,0,0-.931,3.257s-.62-1.4.8-3.652l-.4-1.556a12.474,12.474,0,0,0-1.186,3,4.943,4.943,0,0,1,1.086-3.472l-.145-1.071s-.7,1.341-.866,1.746-.29.39-.29.39a5.144,5.144,0,0,1,1.086-2.587A12.634,12.634,0,0,0,410.224,367.34Z"
              transform="translate(-236.417 -213.486)" fill="#009688" opacity="0.1"/>
        <path id="Path_2368"
              d="M568.255,348.415s-4.073,11.247,4.338,12.248a2.041,2.041,0,0,0,2.361-.41s-.59-.2-.045-1.286a5.355,5.355,0,0,0,.425-1.226,2.707,2.707,0,0,0-.175-1.706h0s-.375-3.607-5.258-6.414c0,0-.876-1.261-1.181-1.311l.255,2.171a3.621,3.621,0,0,1,2.592.615s-2.5-.675-2.572-.29c0,.08.185,1.146.185,1.146s2.762-.415,4.273.961c0,0-2.892-1.206-4.2-.555l.4,1.6s2.9-.585,4.673.921c0,0-3.067-1.161-4.568-.58l.6,1.5s2.837-.5,4.308.745c0,0-3.677-1-4.148-.405a7.721,7.721,0,0,0,1,1.636s2.041-.325,2.832.5c0,0-2.527-.4-2.617-.13a8.665,8.665,0,0,0,2.362,2,6.068,6.068,0,0,1-2.592-1.776,3.386,3.386,0,0,0,.36,1.9s-1.086-.5-.671-2.271a8.055,8.055,0,0,1-.966-1.5,7.377,7.377,0,0,0-.5,2.877s-.8-1.241.33-3.272l-.63-1.5a10.126,10.126,0,0,0-.931,3.252s-.62-1.391.8-3.647l-.4-1.561a12.477,12.477,0,0,0-1.186,3,4.966,4.966,0,0,1,1.091-3.472l-.145-1.071s-.7,1.341-.871,1.746-.29.39-.29.39a5.178,5.178,0,0,1,1.091-2.587A12.294,12.294,0,0,0,568.255,348.415Z"
              transform="translate(-315.382 -204.027)" fill="#009688" opacity="0.1"/>
        <path id="Path_2369"
              d="M342.354,531.905s-4.078,11.232,4.338,12.258a2.031,2.031,0,0,0,2.357-.41s-.585-.2-.045-1.286a5.388,5.388,0,0,0,.43-1.226,2.671,2.671,0,0,0-.18-1.706h0s-.375-3.607-5.258-6.409c0,0-.871-1.266-1.176-1.316l.25,2.171a3.618,3.618,0,0,1,2.592.615s-2.5-.675-2.567-.29c0,.08.185,1.146.185,1.146s2.762-.415,4.268.961c0,0-2.892-1.206-4.2-.555l.39,1.6s2.9-.585,4.673.921c0,0-3.062-1.161-4.563-.58l.6,1.5s2.837-.5,4.308.745c0,0-3.677-1-4.148-.405a7.872,7.872,0,0,0,.971,1.636s2.046-.325,2.837.5c0,0-2.532-.4-2.622-.13a8.716,8.716,0,0,0,2.366,2,6.089,6.089,0,0,1-2.6-1.771,3.347,3.347,0,0,0,.365,1.891s-1.091-.5-.675-2.271a8.063,8.063,0,0,1-.961-1.5,7.28,7.28,0,0,0-.5,2.877s-.8-1.241.33-3.272l-.63-1.5a10.028,10.028,0,0,0-.926,3.252s-.62-1.391.8-3.647l-.4-1.556a12.375,12.375,0,0,0-1.186,3,4.939,4.939,0,0,1,1.086-3.472l-.145-1.076s-.7,1.341-.866,1.746-.29.39-.29.39a5.123,5.123,0,0,1,1.091-2.587A12.763,12.763,0,0,0,342.354,531.905Z"
              transform="translate(-202.503 -295.718)" fill="#009688" opacity="0.1"/>
        <path id="Path_2370"
              d="M310.015,320.31s-4.073,11.227,4.338,12.253a2.046,2.046,0,0,0,2.362-.405s-.59-.2-.045-1.291a5.607,5.607,0,0,0,.425-1.226,2.692,2.692,0,0,0-.175-1.7h0s-.375-3.607-5.263-6.414c0,0-.871-1.266-1.176-1.316l.255,2.176a3.592,3.592,0,0,1,2.587.61s-2.5-.675-2.567-.285c0,.075.185,1.146.185,1.146s2.762-.42,4.273.961c0,0-2.892-1.211-4.2-.555l.39,1.591s2.9-.585,4.678.921c0,0-3.067-1.161-4.568-.575l.6,1.5s2.837-.5,4.308.75c0,0-3.677-1-4.148-.41a7.877,7.877,0,0,0,.971,1.636s2.046-.32,2.837.5c0,0-2.527-.4-2.617-.135a8.575,8.575,0,0,0,2.362,2,6.153,6.153,0,0,1-2.6-1.776,3.362,3.362,0,0,0,.365,1.9s-1.091-.5-.67-2.276a7.894,7.894,0,0,1-.966-1.5,7.354,7.354,0,0,0-.5,2.877s-.806-1.246.33-3.272l-.635-1.5a10.027,10.027,0,0,0-.926,3.257s-.62-1.4.8-3.652l-.4-1.556a12.471,12.471,0,0,0-1.186,3,4.975,4.975,0,0,1,1.086-3.472l-.14-1.071s-.705,1.341-.871,1.741-.29.4-.29.4a5.123,5.123,0,0,1,1.091-2.587A12.241,12.241,0,0,0,310.015,320.31Z"
              transform="translate(-186.346 -189.986)" fill="#009688" opacity="0.1"/>
        <path id="Path_2371"
              d="M371.44,442.238s3.147,11.507,10.612,7.5a2.036,2.036,0,0,0,1.691-1.691s-.59.18-.775-1.026a5.5,5.5,0,0,0-.36-1.246,2.647,2.647,0,0,0-1.126-1.291h0s-2.387-2.732-8.005-2.211c0,0-1.441-.525-1.721-.39l1.461,1.626a3.654,3.654,0,0,1,2.472-1s-2.447.9-2.266,1.246c.04.07.811.831.811.831s2-1.936,4.043-1.681c0,0-3.057.68-3.747,1.971l1.236,1.076s2.031-2.146,4.353-1.946c0,0-3.177.821-4.068,2.161l1.361.9s2-2.056,3.953-1.871c0,0-3.572,1.316-3.627,2.056a7.8,7.8,0,0,0,1.741.775s1.5-1.441,2.6-1.236c0,0-2.3,1.136-2.216,1.4a8.9,8.9,0,0,0,3.077.26,6.1,6.1,0,0,1-3.142.05,3.332,3.332,0,0,0,1.391,1.336s-1.181.215-1.861-1.471a7.93,7.93,0,0,1-1.661-.675,7.4,7.4,0,0,0,1.251,2.642s-1.371-.555-1.616-2.867l-1.386-.866a10.486,10.486,0,0,0,1.116,3.192s-1.311-.781-1.451-3.442l-1.221-1.041a12.508,12.508,0,0,0,.771,3.152A5.016,5.016,0,0,1,374.012,445l-.735-.8s.2,1.5.3,1.926,0,.5,0,.5a5.138,5.138,0,0,1-.6-2.742A12.5,12.5,0,0,0,371.44,442.238Z"
              transform="translate(-217.531 -250.775)" fill="#009688" opacity="0.1"/>
        <path id="Path_2372"
              d="M542.08,462.8s3.147,11.507,10.607,7.5a2.031,2.031,0,0,0,1.7-1.691s-.6.18-.78-1a5.263,5.263,0,0,0-.355-1.246,2.682,2.682,0,0,0-1.131-1.291h0s-2.387-2.732-8.005-2.206c0,0-1.441-.53-1.716-.4l1.456,1.626a3.654,3.654,0,0,1,2.472-1s-2.447.9-2.261,1.246c.035.07.811.831.811.831s2-1.936,4.043-1.681c0,0-3.062.68-3.752,1.971l1.241,1.076s2-2.146,4.348-1.946c0,0-3.172.821-4.063,2.161l1.361.9s2-2.056,3.948-1.871c0,0-3.572,1.316-3.622,2.056a7.737,7.737,0,0,0,1.736.776s1.5-1.441,2.6-1.236c0,0-2.292,1.136-2.216,1.4a8.921,8.921,0,0,0,3.082.26,6.129,6.129,0,0,1-3.147.05,3.367,3.367,0,0,0,1.391,1.336s-1.181.215-1.861-1.471a7.8,7.8,0,0,1-1.656-.675,7.35,7.35,0,0,0,1.246,2.642s-1.371-.555-1.616-2.867l-1.386-.876a10.4,10.4,0,0,0,1.121,3.192s-1.311-.78-1.451-3.442l-1.226-1.041a12.351,12.351,0,0,0,.775,3.152,5,5,0,0,1-1.116-3.462l-.735-.8s.2,1.5.3,1.926,0,.5,0,.5a5.139,5.139,0,0,1-.6-2.742A12.573,12.573,0,0,0,542.08,462.8Z"
              transform="translate(-302.796 -261.063)" fill="#009688" opacity="0.1"/>
        <path id="Path_2373" d="M458.043,645.921s25.957-8.741,20.583-39.711l-32.971-8.561L438,623.061Z"
              transform="translate(-250.789 -328.617)" fill="#ced7e7"/>
        <path id="Path_2374" d="M438,631.611l20.038,22.86s25.957-8.741,20.583-39.711Z"
              transform="translate(-250.789 -337.166)" opacity="0.1"/>
        <path id="Path_2375" d="M219.963,183.232s3.5,5.7,8.29,2.852.2-10.712.2-10.712S219.278,174.116,219.963,183.232Z"
              transform="translate(-141.823 -117.584)" fill="#fed253"/>
        <path id="Path_2376"
              d="M228.254,186.086a4.938,4.938,0,0,1-3.857.65,7.776,7.776,0,0,1-3.832-2.682,8.35,8.35,0,0,1-.6-.816c-.245-3.252.765-5.188,2.166-6.329h0a8.821,8.821,0,0,1,5.744-1.581,2.606,2.606,0,0,1,.56.05l.1.16c.135.255.43.821.745,1.576C230.345,179.592,231.621,184.08,228.254,186.086Z"
              transform="translate(-141.823 -117.587)" opacity="0.1"/>
        <path id="Path_2377"
              d="M468.32,611.85l18.012,1.456,33.522.275L493.441,646.1s-8.38.455-10.107,1.636-25.962.55-25.962.55l-3.913-16.671Z"
              transform="translate(-258.514 -335.712)" fill="#ffa2a2"/>
        <path id="Path_2378"
              d="M468.32,611.85l18.012,1.456,33.522.275L493.441,646.1s-8.38.455-10.107,1.636-25.962.55-25.962.55l-3.913-16.671Z"
              transform="translate(-258.514 -335.712)" opacity="0.05"/>
        <path id="Path_2379"
              d="M428.557,436.385l4.188,7.1.911,12.388s2.917,10.562,5.1,13.659,3.1,11.3,3.1,11.3.911,7.65,2,9.286,2.552,13.509,2.552,13.509,9.656,19.307,18.4,21.674c0,0-43.353,14.209-20.583,39.711,0,0-16.21,4-20.038-.545s-13.844-71.951-13.844-71.951l3.1-56.837Z"
              transform="translate(-236.968 -247.684)" fill="#ced7e7"/>
        <path id="Path_2380"
              d="M428.557,436.385l4.188,7.1.911,12.388s2.917,10.562,5.1,13.659,3.1,11.3,3.1,11.3.911,7.65,2,9.286,2.552,13.509,2.552,13.509,9.656,19.307,18.4,21.674c0,0-43.353,14.209-20.583,39.711,0,0-16.21,4-20.038-.545s-13.844-71.951-13.844-71.951l3.1-56.837Z"
              transform="translate(-236.968 -247.684)" opacity="0.05"/>
        <path id="Path_2381"
              d="M288.735,267.605a39.025,39.025,0,0,0,1.051,18.962l-6.744,19.307s-51.368-28.6-47-35.523c2.477-3.928,2.792-14.319,2.592-22.575-.145-6.274-.59-11.307-.59-11.307s63.041,6.2,54.65,20.588A33.967,33.967,0,0,0,288.735,267.605Z"
              transform="translate(-149.746 -148.143)" fill="#ffa2a2"/>
        <path id="Path_2382"
              d="M294.96,257.058A33.967,33.967,0,0,0,291,267.605a42.5,42.5,0,0,1-50.1-19.828c-.145-6.274-.59-11.307-.59-11.307S303.336,242.669,294.96,257.058Z"
              transform="translate(-152.008 -148.143)" opacity="0.1"/>
        <path id="Path_2383"
              d="M315.725,173.343a42.447,42.447,0,1,1-77.08-24.516q.9-1.266,1.9-2.472a42.457,42.457,0,0,1,13.814-11.007h0a41.7,41.7,0,0,1,9.081-3.292,42.3,42.3,0,0,1,52.289,41.287Z"
              transform="translate(-147.271 -95.397)" fill="#ffa2a2"/>
        <path id="Path_2384"
              d="M252.952,421.691c-.635,3.392.16,9.591,1.366,15.9.05.275.105.55.16.826s.135.7.205,1.046c.555,2.712,1.161,5.4,1.751,7.84s1.121,4.533,1.571,6.254c.68,2.577,1.146,4.2,1.146,4.2s.06,1.591.14,4.123c.045,1.461.1,3.242.145,5.208,0,.57.035,1.151.05,1.751.025,1.046.05,2.131.075,3.242,0,.36,0,.72.025,1.086,0,1.2.045,2.417.065,3.632.025,1.671.045,3.342.055,4.963v6.234c-.055,3.877-.21,6.8-.54,7.65-.115.29-.22.605-.32.936a31.636,31.636,0,0,0-.941,4.738l-.851-.7c-1.626-1.341-3.237-2.712-4.873-4.043a70.837,70.837,0,0,0-8.636-6.194c-.205-.12-.41-.24-.62-.355-.56-.325-1.131-.63-1.711-.921a39.187,39.187,0,0,0-3.672-1.621,48.1,48.1,0,0,0-18.242-2.867c-2.5.956-4.128,1.641-4.128,1.641l-3.182.961-.53.16c-3.447,1.051-8.3,2.542-10.041,3.162-2.822,1-27.323,6.1-27.323,6.1a40.7,40.7,0,0,1-6.834,1.251,96.489,96.489,0,0,1-12.813,2.682,71.4,71.4,0,0,1-29.324-2.361,4.806,4.806,0,0,1-.851-.025,2.621,2.621,0,0,0,.5-.07l-.61-.18-.836-.26q-2.1-.66-4.168-1.446l-.836-.32q-2-.771-3.918-1.656l-.836-.38q-2-.931-3.918-1.966c-.46-.24-.916-.5-1.366-.745q-2.041-1.141-4-2.392c-.22-1.886-.335-3.147-.335-3.147L102,475.911l-.1-.5-1.4-7-.1-.5-3.047-15.24-.1-.5-1.4-7-.1-.5-3.087-15.23-.1-.5-1.4-7-.1-.5L88,406.166l-.1-.5-1.4-6.98-.1-.5-.555-2.752-.836-4.168s-2.667-3.812-5.669-8.32l-.335-.5c-.856-1.266-1.736-2.582-2.592-3.872-.285-.425-.56-.846-.836-1.261q-.625-.946-1.211-1.846l-.27-.415-.055-.085c-4.313-6.674-1.426-9.576-1.426-9.576s1.811-2.452,4.148-5.694c.115-.165.235-.33.36-.5,1-1.4,2.1-2.932,3.182-4.463l.836-1.191c.315-.445.625-.891.926-1.331.12-.165.235-.335.345-.5a59.2,59.2,0,0,0,4.6-7.27c.61-1.626,4.5-6.434,8.38-10.652,3.057-3.332,6.1-6.294,7.465-7,3.1-1.636,4.373-6.924,4.373-6.924s6.739-2.362,7.65-4.183,13.664-10.006,13.664-10.006a67.4,67.4,0,0,0,7.245-5.323,4.268,4.268,0,0,0,.765-.9c.725-1.3,5.464-2.372,7.39-2.757.5-.1.811-.155.811-.155a16.305,16.305,0,0,1,2.917-3.827c.786-.7,1.766-3.092,2.592-5.414.9-2.532,1.591-4.968,1.591-4.968,1.461-4.918,4.373-3.462,4.373-3.462a10.005,10.005,0,0,0,.19,2h0c1.216,6,7.82,8.505,11.287,11.312,3.827,3.092,9.836,11.112,14.574,12.748,3.923,1.356,8.47,6.469,9.911,8.175l.11.13c.24.28.36.44.36.44s2.687-.14,4.323-.17h.6a1.741,1.741,0,0,0,.911-.37c1.626-1.106,4.048-4.348,5.1-5.093,1.271-.916,2.552-15.67,2.552-15.67l.065-.03c4.538-2.126,9.406,19.157,9.406,19.157s8.561,2.552,9.291,4.373a6.544,6.544,0,0,0,1.756,1.776,96.261,96.261,0,0,0,14.059,8.931c.11.055.215.11.325.155a3.332,3.332,0,0,0,.305.145c.185.09.365.17.535.245q.405.18.751.3l.3.105a7.235,7.235,0,0,1,2,1.036c.18.13.36.265.535.41a14.14,14.14,0,0,1,1.871,1.881c.085.1.165.205.245.305h0a16.818,16.818,0,0,1,1,1.381,20.451,20.451,0,0,1,1.256,2.091s7.465,12.753,9.836,14.2,3.827,16.215,3.827,16.215h0L255.5,394.729s-.375,7.5-1.076,15.16C254.037,414.181,253.542,418.549,252.952,421.691Z"
              transform="translate(-67.742 -169.228)" fill="#ced7e7"/>
        <path id="Path_2385"
              d="M291.479,340.976s-5.368,2.912-9.561,3.187a7.877,7.877,0,0,1-1.641-.1c-4.393-.665-10.837-4.278-10.837-4.278L277,331.5l9.2,4.558,3.382,3.147Z"
              transform="translate(-166.564 -195.627)" fill="#63667e"/>
        <path id="Path_2386"
              d="M315.189,166.553a5.033,5.033,0,0,1-.645.745c-2.632,2.5-7.3,1.466-10.892.886a39.666,39.666,0,0,1-9.071-2.622c-2.532-1.081-5.569-2.4-7.845-.851-.876.59-1.476,1.536-2.387,2.056a6.571,6.571,0,0,1-3.147.57,45.949,45.949,0,0,1-10.422-.75c-5.1-1.191-10.372-4.188-15.22-2.211-3.792,1.541-5.849,5.669-6.874,9.636-.5,1.946-.871,4-2,5.654s-3.317,2.822-5.178,2.046c-2.747-1.146-3.152-5.809-6.464-6.044-3.637-.255-3.592,3.5-2.532,6.219,1.571,4,3.627,8.005,3.717,12.178a42.472,42.472,0,0,1,2.422-45.249,4.573,4.573,0,0,0,1.806-2.111,3.155,3.155,0,0,0,.09-.36c.275-1.4-.5-2.862-.545-4.323-.175-3.567,3.687-6.054,7.23-6.5,2.357-.3,4.768-.07,7.13-.145h0a16.13,16.13,0,0,0,3.527-.47,16.966,16.966,0,0,0,5.5-2.827,42.527,42.527,0,0,1,51.768,34.487Z"
              transform="translate(-147.276 -95.407)" opacity="0.1"/>
        <path id="Path_2387"
              d="M312.152,156.328a5.5,5.5,0,0,1-1.5,2.6c-2.632,2.5-7.3,1.461-10.892.881a39.17,39.17,0,0,1-9.071-2.6c-2.532-1.076-5.569-2.4-7.845-.846-.876.59-1.476,1.536-2.387,2.056a6.51,6.51,0,0,1-3.147.565,44.558,44.558,0,0,1-10.422-.745c-5.1-1.2-10.372-4.188-15.22-2.216-3.792,1.541-5.849,5.674-6.874,9.641-.5,1.946-.871,4-2,5.649s-3.317,2.827-5.178,2.051c-2.747-1.146-3.152-5.809-6.464-6.044-3.637-.255-3.592,3.5-2.532,6.219,1.861,4.738,4.393,9.451,3.562,14.474-.826,0-2.191-.03-3-.05.63-1.076-.57-2.357-1.766-2.722s-2.592-.36-3.5-1.231a4.106,4.106,0,0,1-.821-3.422,23.55,23.55,0,0,1,1.866-7.475c.655-1.5,1.5-3.127,1-4.7a13.351,13.351,0,0,0-1.081-2.046,7.816,7.816,0,0,1,.1-6.569c.38-.881.655-1.711.971-2.5a11.127,11.127,0,0,1,1.706-3.117c1.146-1.426,2.266-3.572,1-4.9-.32-.335.32-.565.115-1a.856.856,0,0,1-.075-.235,2.272,2.272,0,0,1,.36-1.5,3.652,3.652,0,0,1,.2-.335,2.837,2.837,0,0,1,.2-.33,15.906,15.906,0,0,1,4.328-4.718c1.086-.786,2.357-1.541,2.787-2.812.5-1.5-.38-3.1-.455-4.683-.175-3.567,3.687-6.054,7.23-6.5s7.215.3,10.667-.62c4.9-1.291,8.34-5.614,12.788-8.04a18.107,18.107,0,0,1,15.91-.57c5.193,2.372,9.111,7.165,14.534,8.966,1.921.64,4,.9,5.734,1.956,2,1.231,3.217,3.382,4.258,5.5,1.586,3.217,1.906,6.449,3,9.856.871,2.7,2.076,6.234,2.176,9.346a9.366,9.366,0,0,1-.245,2.767Z"
              transform="translate(-143.384 -88.129)" fill="#896363"/>
        <g id="Group_85" transform="translate(79.814 44.634)" opacity="0.1">
            <path id="Path_2388"
                  d="M234.946,181.841a2.226,2.226,0,0,0-.375-1.871c.13.39-.435.615-.125.941A2,2,0,0,1,234.946,181.841Z"
                  transform="translate(-228.845 -164.545)"/>
            <path id="Path_2389"
                  d="M234.655,177.68h0a2.066,2.066,0,0,0-.105.54C234.645,178.06,234.775,177.9,234.655,177.68Z"
                  transform="translate(-228.944 -163.401)"/>
            <path id="Path_2390"
                  d="M315.864,194.593c-2.637,2.5-7.3,1.466-10.9.881a38.905,38.905,0,0,1-9.061-2.617c-2.537-1.081-5.569-2.4-7.85-.851-.871.59-1.471,1.536-2.387,2.056a6.52,6.52,0,0,1-3.147.565,45.729,45.729,0,0,1-10.427-.75c-5.093-1.191-10.367-4.178-15.215-2.211-3.792,1.546-5.849,5.674-6.874,9.641-.5,1.946-.866,4-2,5.654s-3.322,2.822-5.178,2.051c-2.747-1.151-3.152-5.809-6.464-6.044-2.587-.185-3.307,1.666-3.132,3.722a2.63,2.63,0,0,1,3.132-2.632c3.312.235,3.717,4.9,6.464,6.044,1.856.775,4.048-.39,5.178-2.051a17.534,17.534,0,0,0,2-5.649c1.026-3.968,3.082-8.1,6.874-9.641,4.848-1.971,10.122,1,15.215,2.211a44.313,44.313,0,0,0,10.427.745,6.332,6.332,0,0,0,3.147-.56c.936-.53,1.5-1.466,2.387-2.061,2.281-1.546,5.313-.225,7.85.851a39.161,39.161,0,0,0,9.061,2.622c3.6.58,8.265,1.626,10.9-.886a6.875,6.875,0,0,0,1.766-5.5A6.3,6.3,0,0,1,315.864,194.593Z"
                  transform="translate(-228.27 -169.647)"/>
            <path id="Path_2391"
                  d="M249.448,149.14a5.324,5.324,0,0,0-.03.751c.05,1.041.445,2.081.57,3.1C250.173,151.742,249.6,150.441,249.448,149.14Z"
                  transform="translate(-236.372 -149.14)"/>
            <path id="Path_2392"
                  d="M227.4,214.579a3.681,3.681,0,0,1,.1.455,3.592,3.592,0,0,0-.1-1.546,12.973,12.973,0,0,0-1.081-2.051,6.179,6.179,0,0,1-.655-2.377,6.589,6.589,0,0,0,.655,3.472A12.716,12.716,0,0,1,227.4,214.579Z"
                  transform="translate(-224.493 -179.081)"/>
            <path id="Path_2393"
                  d="M238.557,255.576l-2.927-.045a1.256,1.256,0,0,1-.09,1.091c.826,0,2.2.03,3,.05a12.26,12.26,0,0,0,.145-2.592A11.732,11.732,0,0,1,238.557,255.576Z"
                  transform="translate(-229.439 -201.576)"/>
            <path id="Path_2394"
                  d="M227.675,248.207c-1.2-.36-2.587-.365-3.477-1.241a3.172,3.172,0,0,1-.831-2.1,3.938,3.938,0,0,0,.831,3.192c.891.876,2.281.881,3.477,1.241a2.972,2.972,0,0,1,1.816,1.5C230,249.768,228.836,248.552,227.675,248.207Z"
                  transform="translate(-223.345 -196.974)"/>
        </g>
        <path id="Path_2395"
              d="M364.368,537.306c-.56-.325-1.131-.63-1.711-.921a39.181,39.181,0,0,0-3.672-1.621,48.1,48.1,0,0,0-18.242-2.867c-2.5.956-4.128,1.641-4.128,1.641l-3.182.961-.53.16c-.035-.35-.075-.7-.11-1.056s-.075-.7-.115-1.046c-1.121-10.612-2-21.514-2-21.514V500.532l-.06-27.743-.5-9.146-.235-4.048-.045-.77-.09-1.581-.05-.941a8.448,8.448,0,0,1-.28-.911h0c-.035-.125-.07-.265-.1-.41-.125-.5-.26-1.146-.4-1.846-.916-4.6-2.061-12.363-2.131-13.939-.09-2.1-1.911-14.669-1.911-14.669-.185-6.919-6-19.948-7.47-22.4s-3.1-17.216-2.552-18.012c.285-.425.47-2.942.585-5.263,0-.265.025-.525.035-.781.075-1.816.11-3.332.11-3.332l5.724-1.131,1.536-.3.12-.025.05.1c.165.305.68,1.281,1.286,2.562.07.135.135.28.205.425.03.07.065.14.1.21,1.121,2.452,2.417,5.679,2.362,7.535-.09,3.282,3.647,11.207,3.647,11.207.36,1.821,8.285,19.943,8.285,19.943s6.469,17.761,6.1,20.678,3.1,22.224,3.1,22.224l3.552,19.858c1.726,3.913,4,12.928,4,12.928l.866,5.113.165.976,2.306,13.644,1.131,6.684s.475,3.552,1.2,7.5c.06.355.13.716.2,1.076a55.061,55.061,0,0,0,1.886,7.68,28.754,28.754,0,0,1,.966,3.677Z"
              transform="translate(-189.2 -216.504)" opacity="0.1"/>
        <path id="Path_2396"
              d="M365.539,537.651c-.205-.12-.41-.24-.62-.355-.56-.325-1.131-.63-1.711-.921a39.181,39.181,0,0,0-3.672-1.621,48.1,48.1,0,0,0-18.242-2.867c-2.5.956-4.128,1.641-4.128,1.641l-3.182.961c-.04-.35-.075-.7-.115-1.056s-.07-.64-.1-.961c-1.121-10.587-2-21.439-2-21.439v-10.6l-.06-27.673-.5-8.736-.1-1.811-.07-1.226-.09-1.621-.09-1.646-.065-1.186v-.26a.1.1,0,0,0-.035-.085c-.1-.27-.21-.68-.335-1.2l-.06-.25c-.025-.115-.055-.24-.08-.365-.941-4.268-2.322-13.469-2.4-15.195-.09-2.1-1.911-14.669-1.911-14.669-.185-6.919-6-19.948-7.47-22.4s-3.1-17.216-2.552-18.012c.315-.5.5-3.537.62-6.044v-.58c.065-1.546.09-2.752.09-2.752l5.323-1.051,1.351-.265.21-.04.5-.1s.655,1.211,1.441,2.877l.1.21c1.146,2.472,2.5,5.834,2.462,7.745-.09,3.282,3.647,11.207,3.647,11.207.36,1.821,8.285,19.943,8.285,19.943s6.469,17.761,6.1,20.678,3.1,22.224,3.1,22.224L352.736,478c1.726,3.913,4,12.928,4,12.928l.806,4.763.165.966,1.816,10.767,1.676,9.921s.5,3.537,1.191,7.5c.065.36.13.72.2,1.086a55.348,55.348,0,0,0,1.886,7.715,30.522,30.522,0,0,1,1.061,4Z"
              transform="translate(-189.751 -216.494)" fill="#63667e"/>
        <path id="Path_2397"
              d="M314,131.266s-1.911,2.462-3.637,2.462-8.445-.275-11.948-1.366-20.673-1.916-20.673-1.916-24.316.09-25.136-.73-15.12-5.193-16.576-4.918c-.305.06-1.051.19-2.046.355l-1.141.185c-1.726.275-3.882.6-5.854.831-2.437.285-4.578.43-5.258.18v-2.1s2.822-4.1,3-5.278,2.552-18.222,8.746-24.321a24.416,24.416,0,0,1,11.748-11.007c8.38-3.647,16.761-6.739,16.761-6.739l1.466-.21,4.728-.7a3.57,3.57,0,0,1,.465-.39c1.311-1,5.283-3.177,10.462,1.5l.916,1.461s15.935,3.732,23.31,16.756,7.745,25.777,8.29,31.605c0,0-.365,1.641.365,2.276a10.208,10.208,0,0,1,.755.74c.065.065.13.13.19.2.21.21.405.43.565.61a.235.235,0,0,1,.05.05,1.6,1.6,0,0,0,.125.135Z"
              transform="translate(-142.724 -67.07)" fill="#fed253"/>
        <path id="Path_2398"
              d="M325.912,176.429s-1.911,2.462-3.637,2.462-8.445-.275-11.948-1.366-20.673-1.916-20.673-1.916-24.316.09-25.136-.73-15.12-5.193-16.576-4.918c-.305.06-1.051.19-2.046.355l-.26-1.6-.065-.4s27.6-5.919,45.995-2.817,31.971,6.554,31.971,6.554-.365,1.641.365,2.276a10.223,10.223,0,0,1,.755.74c.065.065.13.13.19.2.21.21.405.43.565.61a.235.235,0,0,1,.05.05,1.651,1.651,0,0,0,.125.135Z"
              transform="translate(-154.636 -112.233)" opacity="0.05"/>
        <path id="Path_2399"
              d="M310.612,185.609c-3.407.265-9.686-.565-12.433-.971-.781-.115-1.546-.255-2.316-.425-2.947-.64-12.008-2.437-17.511-1.606-6.649,1-25.411-.821-25.411-.821s-11.567-2.367-16.215-4.278a16.122,16.122,0,0,0-7.395-.575,20.587,20.587,0,0,0-2.151.385c-3.873.916-7.14,3-6.574,6.559a8.354,8.354,0,0,1-.6-.816c-.245-3.252.765-5.188,2.166-6.329h0l.33-.135a40.4,40.4,0,0,1,5.213-1.116c.275-.045.56-.085.851-.12,4.978-.67,12.178-.821,18.252,2.236,0,0,5.644,2.647,9.471,2.647s34.973.275,42.262,2.367a31.019,31.019,0,0,0,4.428.936,18.012,18.012,0,0,0,7.905-.745,9.366,9.366,0,0,1-.27,2.807Z"
              transform="translate(-141.843 -117.41)" opacity="0.1"/>
        <path id="Path_2400"
              d="M314,180.488s-1.911,2.462-3.637,2.462-8.445-.275-11.948-1.366-20.673-1.916-20.673-1.916-24.316.09-25.136-.73-15.12-5.193-16.576-4.918c-.305.06-1.051.19-2.046.355l-1.141.185a20.314,20.314,0,0,0-5.854.831c-2.437.285-4.578.43-5.258.18v-.415a12.009,12.009,0,0,1,1.636-.79,44.249,44.249,0,0,1,10.357-1.611,28.944,28.944,0,0,1,13.964,2.612s5.644,2.647,9.471,2.647,34.973.27,42.262,2.367a31.675,31.675,0,0,0,4.428.931,18.411,18.411,0,0,0,9.651-1.386.236.236,0,0,1,.05.05,1.667,1.667,0,0,0,.125.135Z"
              transform="translate(-142.724 -116.292)" opacity="0.1"/>
        <path id="Path_2401"
              d="M219.139,183.241s-6.1-4.648,1.821-7.745c0,0,13.844-4.278,24.321,1,0,0,5.644,2.637,9.471,2.637s34.973.275,42.262,2.372a31.522,31.522,0,0,0,4.428.931,18.847,18.847,0,0,0,11.242-2.136c.5-.275.951-.415,1.086-.255.455.55.1,3.737-3.913,4.373-3.127.5-10.232-.445-13.219-.881-.776-.115-1.546-.26-2.312-.425-2.947-.64-12.008-2.437-17.536-1.606-6.644,1-25.411-.821-25.411-.821s-11.562-2.367-16.21-4.283S217.408,176.136,219.139,183.241Z"
              transform="translate(-140.308 -116.858)" fill="#fed253"/>
        <path id="Path_2402"
              d="M314.691,85.971c-.5-.72-6.93-5.869-9.551-7.95l4.728-.7a3.567,3.567,0,0,1,.465-.39C313.771,80.537,314.691,85.971,314.691,85.971Z"
              transform="translate(-184.402 -68.425)" opacity="0.1"/>
        <path id="Path_2403" d="M216.626,89.625l-2.1,3.1,8.015-.27.18-3.462Z" transform="translate(-107.191 -44.466)"
              opacity="0.1"/>
        <path id="Path_2404" d="M316.47,97.73l.911,2.822,5.1.821L320.3,98Z" transform="translate(-158.128 -48.834)"
              opacity="0.1"/>
        <path id="Path_2405" d="M205.18,347c.545.911,18.487,24.516,23.225,23.86S205.18,347,205.18,347Z"
              transform="translate(-134.454 -203.372)" opacity="0.1"/>
        <path id="Path_2406" d="M325.33,390.12s4.373,4.193,3.732,5.829S325.33,390.12,325.33,390.12Z"
              transform="translate(-194.491 -224.919)" opacity="0.1"/>
        <path id="Path_2407" d="M227.54,447.65s-3.827,17.942-1.821,18.512S227.54,447.65,227.54,447.65Z"
              transform="translate(-144.427 -253.665)" opacity="0.1"/>
        <path id="Path_2408" d="M328.24,586.91c.635,1.821,5.919,13.664,7.1,14.3S328.24,586.91,328.24,586.91Z"
              transform="translate(-195.945 -323.25)" opacity="0.1"/>
        <path id="Path_2409" d="M447.064,489.7c-.185.635-4.738,4.373-3.737,5.739S447.064,489.7,447.064,489.7Z"
              transform="translate(-253.379 -274.676)" opacity="0.1"/>
        <path id="Path_2410" d="M379.981,556.14c-.09.46-1,10.006.73,11.843S379.981,556.14,379.981,556.14Z"
              transform="translate(-221.639 -307.875)" opacity="0.1"/>
        <path id="Path_2411"
              d="M326.46,626.519c-1.321.735-2.687,1.446-4.078,2.126-1.5.73-3,1.426-4.533,2.081-.61.265-1.221.525-1.826.776q-1.381.57-2.732,1.1c-2.737,1.071-5.373,2-7.72,2.787-.911.305-1.781.585-2.592.846-4.083,1.3-6.794,2-6.794,2a7.363,7.363,0,0,0-1.886-.155h-.54a23.763,23.763,0,0,0-2.527.32c-5.589,1-13.484,3.807-18.242,5.644-2.5.956-4.128,1.641-4.128,1.641l-3.182.961-.53.16c-3.447,1.051-8.3,2.542-10.041,3.162-2.822,1-27.323,6.1-27.323,6.1a40.69,40.69,0,0,1-6.834,1.251,124.723,124.723,0,0,1-17.121.39c-5.734.37-15.01-.891-20.408-1.741l-.861-.135c-2.086-.34-3.412-.585-3.412-.585l.7-.966,14.364-19.818.085-.12,13.384-18.457.5-.67,1.216-1.676s.73-1,3.542-1.066h1.086a29.324,29.324,0,0,1,6.939,1.416l.65.2c9.691,2.777,24.671,2.081,24.671,2.081s9.321-1.5,16.646-2.4l.545-.07a67.169,67.169,0,0,1,7.22-.625c4.463.09,14.119-2.276,14.119-2.276a9.409,9.409,0,0,0,4.123-1.656c.155-.11.32-.23.5-.36.5-.375,1.076-.836,1.816-1.406,1.351-1.036,3.247-2.442,6.229-4.413.26-.17.535-.34.831-.5s.67-.375,1.031-.555a39.076,39.076,0,0,1,9.066-3,53.151,53.151,0,0,1,7.89-1.086h.4c7.5-.4,15.17.886,19.653,5.1a12.3,12.3,0,0,1,2.031,2.5,11.4,11.4,0,0,1,.73,1.361,12.765,12.765,0,0,1,.906,2.8q.055.27.09.54v.16c0,.145.03.29.04.435C340.549,616.7,334.335,622.117,326.46,626.519Z"
              transform="translate(-121.448 -328.662)" opacity="0.1"/>
        <path id="Path_2412"
              d="M179.15,653.054s16.21,3,24.681,2.457c0,0,15.575.821,23.955-1.636,0,0,24.516-5.1,27.323-6.1s13.754-4.283,13.754-4.283,21.314-8.926,27.323-7.47c0,0,47.18-12.2,43.808-28.688s-33.151-12.748-42.527-6.559-8.005,6.834-12.658,7.835c0,0-9.656,2.367-14.119,2.276s-24.411,3.1-24.411,3.1-15.665.73-25.316-2.276-11.567-.365-11.567-.365Z"
              transform="translate(-121.448 -327.549)" fill="#ffa2a2"/>
        <path id="Path_2413"
              d="M170.381,513.193a.246.246,0,0,1,0,.06,3.376,3.376,0,0,1-.285,1.076c-1.921,4.713-12.828,17.426-12.828,17.426a34.822,34.822,0,0,1-1.8,4.413,67.666,67.666,0,0,1-5.178,8.781,118.9,118.9,0,0,1-9.421,11.943h-.025a14.313,14.313,0,0,1-1.346.885,11.137,11.137,0,0,1-4.608,1.671,4.8,4.8,0,0,1-.851-.025,2.621,2.621,0,0,0,.5-.07l-.61-.18-.836-.26q-2.1-.66-4.168-1.446l-.836-.32q-2-.771-3.918-1.656l-.836-.38q-2-.931-3.918-1.966c-.46-.24-.916-.5-1.366-.745q-2.041-1.141-4-2.392-2.081-1.326-4.073-2.767c-1-1.856-1.826-3.5-2.276-4.388a12.2,12.2,0,0,1-.791-5.709,2.717,2.717,0,0,1,.03-.5c.085-1.071.215-1.806.215-1.806a25.729,25.729,0,0,1-2-3.122,3.673,3.673,0,0,1-.56-1.8,2.131,2.131,0,0,0-.07-.76,17.748,17.748,0,0,0-3.572-6c-1.141-1.256-1.211-5.949-1.1-9.276.065-2,.19-3.472.19-3.472a1.166,1.166,0,0,1-.475-.615,14.87,14.87,0,0,1-.811-3.392,3.537,3.537,0,0,0-.07-.5c-.32-2.3-.465-4.6-.465-4.6-3.7-2.7-5.464-6.9-6.284-10.657l-.105-.5a31.52,31.52,0,0,1-.57-7v-.625s.49-10.842,1.861-15.075c.055-.18.115-.345.175-.5a3.747,3.747,0,0,1,.39-.755,9.317,9.317,0,0,0,1.151-3.407c.205-1.031.375-2.176.5-3.317.115-.951.205-1.9.275-2.772.2-2.342.255-4.168.255-4.168l-.926-4.563c-.255-1.246-.45-2.5-.585-3.757a4.4,4.4,0,0,0-.06-.5,42.279,42.279,0,0,1-.125-6.979,2.773,2.773,0,0,1,.03-.5,42.3,42.3,0,0,1,4.083-15.26l.25-.5q.5-1,1.051-1.966c.265-.475.545-.946.836-1.411a41.272,41.272,0,0,1,2.5-3.607c.13-.17.265-.335.4-.5a40.766,40.766,0,0,1,5.183-5.343c5.053-4.343,9.691-6.229,13.9-6.374,18.422-.65,28.754,31.931,30.425,37.639.16.55.24.851.24.851s7.465,7.47,5.278,10.747a5.639,5.639,0,0,0-.755,2.362c-.6,4.408,1.121,11.668,1.121,11.668s.61,2,2.392,6.794l.525,1.4c1.116,3,1.376,8.04.735,12.553-.615,4.323-2.061,8.145-4.378,9.126-4.738,2-3.462,4-2.372,5.649a22.484,22.484,0,0,1,1.616,3.692c.685,1.846,1.321,3.787,1.561,4.543.07.21.105.325.105.325a9.894,9.894,0,0,1,2.056-.55c.9-.125,1.781-.035,1.951.73.09.41.605.9,1.331,1.381A38.429,38.429,0,0,0,170.381,513.193Z"
              transform="translate(-77.527 -230.475)" opacity="0.1"/>
        <path id="Path_2414"
              d="M168.207,513.192h0a3.3,3.3,0,0,1-.285,1.1c-1.911,4.718-12.828,17.461-12.828,17.461a35.577,35.577,0,0,1-1.8,4.413,63.746,63.746,0,0,1-4.088,7.14,117.652,117.652,0,0,1-10.4,13.459l-.115.125s-.44.335-1.141.766a13.009,13.009,0,0,1-4.078,1.711l-.61-.18-.836-.26q-2.1-.66-4.168-1.446l-.836-.32q-2-.771-3.918-1.656l-.836-.38q-2-.931-3.918-1.966c-.46-.24-.916-.5-1.366-.745q-2.041-1.141-4-2.392-2.081-1.326-4.073-2.767-.921-.66-1.821-1.356c-.675-1.281-1.216-2.362-1.551-3.032a12.2,12.2,0,0,1-.791-5.709,2.718,2.718,0,0,1,.03-.5c.085-1.071.215-1.806.215-1.806s-.405-.545-.9-1.286c-.275-.41-.57-.886-.836-1.356a4.642,4.642,0,0,1-.816-2.276,1.116,1.116,0,0,0,0-.26,2.426,2.426,0,0,0-.075-.5,17.769,17.769,0,0,0-3.577-6c-1.141-1.256-1.211-5.949-1.106-9.276v-.5c.07-1.726.175-2.972.175-2.972-.565-.245-1-2.061-1.281-4l-.075-.5c-.32-2.3-.465-4.6-.465-4.6-3.7-2.7-5.464-6.9-6.279-10.657a30.55,30.55,0,0,1-.65-8.005v-.125s.43-10.9,1.8-15.135c.055-.18.115-.345.175-.5a3.747,3.747,0,0,1,.445-.731c.76-1.061,1.266-3.612,1.6-6.224l.06-.5c.415-3.5.53-6.939.53-6.939l-.931-4.563q-.38-1.876-.585-3.757c-.025-.165-.04-.335-.06-.5a42.293,42.293,0,0,1-.125-6.98,2.383,2.383,0,0,1,.035-.5,42.2,42.2,0,0,1,4.083-15.26c.08-.17.16-.335.25-.5a39.207,39.207,0,0,1,2.141-3.782c.27-.425.545-.846.836-1.261.455-.66.931-1.311,1.426-1.941l.4-.5a40.815,40.815,0,0,1,5.138-5.328c5.5-4.718,10.507-6.539,15.01-6.374,17.736.635,27.693,32.046,29.329,37.639.16.55.24.851.24.851s7.47,7.47,5.283,10.747a5.638,5.638,0,0,0-.756,2.361c-.605,4.408,1.121,11.668,1.121,11.668s.61,2,2.392,6.794c.16.445.335.911.5,1.4,1.116,3,1.376,8.04.735,12.553-.615,4.328-2.056,8.145-4.378,9.126-4.733,2-3.462,4-2.367,5.649a22.482,22.482,0,0,1,1.616,3.692c.866,2.357,1.661,4.868,1.661,4.868a9.752,9.752,0,0,1,1-.325,5.117,5.117,0,0,1,2.161-.225.956.956,0,0,1,.856.73c.135.6,1.171,1.346,2.427,2.051a46.349,46.349,0,0,0,5.038,2.362Z"
              transform="translate(-76.443 -230.475)" fill="#ced7e7"/>
        <path id="Path_2415"
              d="M115.61,517.609c1.731-.09,20.313-7.285,24.141-4.828s27.518,18.4,27.518,18.4-14.845-19.4-27.778-23.95S115.61,517.609,115.61,517.609Z"
              transform="translate(-89.698 -283.003)" opacity="0.1"/>
        <path id="Path_2416" d="M169,587.46s18.582,3.732,21.4,6.284Z" transform="translate(-116.376 -323.525)"
              opacity="0.1"/>
        <path id="Path_2417" d="M155.363,643c-.27.275-7,15.39-6.464,15.39s6.284-9.006,6.284-9.006Z"
              transform="translate(-106.317 -351.277)" opacity="0.1"/>
        <path id="Path_2418" d="M182.287,606.75s-5.464,1.916-4.828,2.1S182.1,607.57,182.287,606.75Z"
              transform="translate(-120.577 -333.164)" opacity="0.1"/>
        <path id="Path_2419" d="M176.24,652.45c.911,1.911,3.822,7.65,4.463,6.739S176.24,652.45,176.24,652.45Z"
              transform="translate(-119.994 -355.999)" opacity="0.1"/>
        <path id="Path_2420"
              d="M264.388,315.3l-.781,1.111s-6.2-4.368-8.746-6.554-8.561,7.83-13.3,10.562-12.748,3.462-12.748,3.462-6.194-6.194-6-8.005-2.912-2.367-3.1-3.642a18.119,18.119,0,0,0-2.732-6.739c-.771-.961-.881-3.968-.811-6.584.5-.1.811-.155.811-.155a16.307,16.307,0,0,1,2.917-3.828c1.641-1.456,4.188-10.382,4.188-10.382,1.456-4.918,4.368-3.462,4.368-3.462,0,7.47,7.655,10.2,11.477,13.3s9.836,11.112,14.574,12.753C258.394,308.457,262.942,313.585,264.388,315.3Z"
              transform="translate(-139.938 -170.333)" opacity="0.1"/>
        <path id="Path_2421"
              d="M264.363,313.108l-.78,1.116s-6.224-4.358-8.771-6.559-8.561,7.83-13.3,10.562-12.748,3.467-12.748,3.467-6.194-6.2-6-8.005-2.912-2.367-3.1-3.647a18.086,18.086,0,0,0-2.732-6.739c-.771-.961-.881-3.968-.811-6.584l.811-.15a16.305,16.305,0,0,1,2.917-3.827c1.641-1.461,4.188-10.382,4.188-10.382,1.456-4.918,4.368-3.467,4.368-3.467,0,7.47,7.655,10.207,11.477,13.3s9.836,11.107,14.574,12.748C258.369,306.288,262.917,311.4,264.363,313.108Z"
              transform="translate(-139.913 -169.24)" fill="#ced7e7"/>
        <path id="Path_2422"
              d="M302.3,349.371s-5.368,2.912-9.561,3.187a7.881,7.881,0,0,1-1.641-.1h0s4.628-3.457,8.926-4.163Z"
              transform="translate(-177.387 -204.022)" opacity="0.1"/>
        <path id="Path_2423"
              d="M326.346,376.652s-6.769-2.637-9.006,1.331c.075-1.821.105-3.332.105-3.332l7.38-1.461s.71,1.316,1.541,3.087C326.346,376.512,326.346,376.652,326.346,376.652Z"
              transform="translate(-190.498 -216.459)" opacity="0.1"/>
        <path id="Path_2424"
              d="M291.1,352.143s8.11-4.868,12.008-4.458c4.088.425,12.008.725,12.008.725s-2.732,6.194-2.367,7.47a64.019,64.019,0,0,1,.455,7.47s-8.2-3.187-9.561,2.732c0,0-4.463-6.649-7.47-8.656a20.452,20.452,0,0,1-5.073-5.283Z"
              transform="translate(-177.387 -203.703)" fill="#63667e"/>
        <path id="Path_2425"
              d="M352.744,337.9c-2.367,0-10.747-5.288-12.568-8.746s-4.373.36-6.739,1.641c-1.5.821-7.45-.9-10.657-2.141,1.626-1.106,5.228-4.218,6.284-4.963,1.271-.916,2.552-15.67,2.552-15.67,4.553-2.367,9.471,19.127,9.471,19.127s8.566,2.552,9.291,4.373a6.543,6.543,0,0,0,1.756,1.776C353.135,335.816,353.685,337.9,352.744,337.9Z"
              transform="translate(-193.216 -183.803)" opacity="0.1"/>
        <path id="Path_2426"
              d="M353.924,335.723c-2.367,0-10.747-5.283-12.568-8.741s-4.373.36-6.739,1.636c-1.5.821-6.269-.765-9.476-2,1.626-1.1,4.048-4.343,5.1-5.093,1.271-.911,2.552-15.665,2.552-15.665,4.553-2.367,9.471,19.127,9.471,19.127s8.565,2.552,9.291,4.373a6.543,6.543,0,0,0,1.756,1.776C354.314,333.641,354.864,335.723,353.924,335.723Z"
              transform="translate(-194.396 -182.724)" fill="#ced7e7"/>
        <path id="Path_2427"
              d="M446.96,617.742,526.166,551.7a4.242,4.242,0,0,1,2.832-1l29.549.776s2.046,1.5-.956,4.783l-74.718,61.315a4.752,4.752,0,0,1-2.852,1.071l-32.311,1.071a1.116,1.116,0,0,1-.75-1.971Z"
              transform="translate(-255.066 -305.156)" fill="#009688"/>
        <path id="Path_2428"
              d="M523.94,634.43s17.3,24.776,36.524,1.731,13.664-35.153,7.835-35.793S529.674,624.959,523.94,634.43Z"
              transform="translate(-293.732 -329.969)" fill="#ffa2a2"/>
        <path id="Path_2429"
              d="M757.17,87.283S779.469,44,805.826,66.324c0,0,5.754,2.1,5.318,8.18,0,0-2.216-1.216-3.978,3.432a22.454,22.454,0,0,1-2.5,4.668,11.007,11.007,0,0,1-5.554,4.193h0s-11.828,8.861-33.737,2.026c0,0-6.194.891-7.195.12l7.2-5.263s3.657,5.428,9.006,6.049c0,0-9.006-5.654-7.975-6.879.21-.25,3.943-2.617,3.943-2.617s6.4,9.411,14.694,10.107c0,0-11.622-5.3-13.289-11.007l5.839-3.257s6.274,10.282,15.7,11.432c0,0-11.958-5.959-14.369-12.058l6.179-2.412s6.319,9.906,14.159,10.812c0,0-13.118-8.28-12.708-11.272,0,0,5.809-1.871,7.59-1.626,0,0,4.7,7,9.3,7.13,0,0-8.18-6.464-7.64-7.46,0,0,8.215-.425,12.508,1.561,0,0-6.1-3.4-12.508-2.847,0,0,2.9-3.407,6.674-4.158,0,0-4.528-1.861-8.666,4.283,0,0-6.389.585-7.18,1.3,0,0,3.232-6.644,7.21-9.471,0,0-5.929,1.046-8.866,10.051l-6.264,2.286s3.807-9.006,7.165-11.788c0,0-5.884,2-8.7,12.508l-5.764,3.132s2.687-8.005,5.754-11.913c0,0-5.058,3.032-7.375,12.868l-3.6,2.537s2.066-5.814,2.812-7.43.37-1.951.37-1.951a20.949,20.949,0,0,0-4.718,10.392S757.585,87.683,757.17,87.283Z"
              transform="translate(-410.271 -59.93)" fill="#009688" opacity="0.1"/>
        <path id="Path_2430"
              d="M941.5,148.515s10.076-19.558,21.984-9.471a3.745,3.745,0,0,1,2.4,3.692s-1-.545-1.8,1.556a10.008,10.008,0,0,1-1.121,2.106,5,5,0,0,1-2.5,1.9h0s-5.349,4-15.25.916c0,0-2.8.4-3.247.055l3.252-2.382s1.651,2.457,4.073,2.732c0,0-4.063-2.552-3.6-3.107.09-.11,1.776-1.181,1.776-1.181s2.892,4.253,6.644,4.568c0,0-5.253-2.4-6-5l2.642-1.466s2.832,4.648,7.09,5.168c0,0-5.4-2.692-6.5-5.449l2.792-1.091s2.852,4.478,6.394,4.888c0,0-5.929-3.742-5.739-5.093a14.463,14.463,0,0,1,3.427-.735s2.121,3.167,4.2,3.217c0,0-3.7-2.917-3.452-3.367,0,0,3.712-.19,5.644.705a11.218,11.218,0,0,0-5.644-1.286,6.2,6.2,0,0,1,3-1.881s-2.046-.841-3.918,1.936a14.283,14.283,0,0,0-3.242.585,13.565,13.565,0,0,1,3.257-4.278s-2.682.47-4,4.543l-2.8,1.051s1.716-4.068,3.237-5.328c0,0-2.662.906-3.933,5.649l-2.6,1.411a22.893,22.893,0,0,1,2.6-5.383s-2.286,1.371-3.327,5.814l-1.631,1.146s.936-2.627,1.271-3.357.165-.881.165-.881a9.5,9.5,0,0,0-2.131,4.708S941.675,148.7,941.5,148.515Z"
              transform="translate(-502.377 -98.018)" fill="#009688" opacity="0.1"/>
        <path id="Path_2431"
              d="M723.27,194s10.076-19.558,22.014-9.471a3.754,3.754,0,0,1,2.4,3.7s-1-.55-1.8,1.551a10.221,10.221,0,0,1-1.121,2.106,5,5,0,0,1-2.527,1.9h0s-5.343,4-15.245.916c0,0-2.8.405-3.247.055L727,192.364s1.651,2.457,4.068,2.737c0,0-4.063-2.557-3.6-3.112.1-.11,1.781-1.181,1.781-1.181s2.892,4.253,6.639,4.568c0,0-5.249-2.4-6-5l2.642-1.461s2.837,4.643,7.095,5.163c0,0-5.4-2.692-6.5-5.449l2.792-1.091s2.857,4.478,6.4,4.888c0,0-5.929-3.742-5.744-5.093A14.515,14.515,0,0,1,740,186.6s2.121,3.167,4.2,3.222c0,0-3.7-2.922-3.452-3.372,0,0,3.707-.19,5.644.705a11.245,11.245,0,0,0-5.649-1.286,6.2,6.2,0,0,1,3-1.881s-2.041-.841-3.913,1.936a14.282,14.282,0,0,0-3.242.585,13.482,13.482,0,0,1,3.257-4.278s-2.682.47-4,4.543l-2.837,1.051s1.721-4.068,3.237-5.323c0,0-2.657.9-3.927,5.644l-2.607,1.411a22.986,22.986,0,0,1,2.6-5.383s-2.286,1.371-3.332,5.814l-1.631,1.146s.936-2.627,1.271-3.357.17-.881.17-.881a9.457,9.457,0,0,0-2.131,4.708S723.445,194.175,723.27,194Z"
              transform="translate(-393.332 -120.743)" fill="#009688" opacity="0.1"/>
    </g>
</svg>
