<svg xmlns="http://www.w3.org/2000/svg" width="370.181" height="331.734" viewBox="0 0 370.181 331.734">
    <g id="undraw_inbox_oppv" transform="translate(0 0.014)">
        <path id="Path_2192"
              d="M727.168,687.436c-4.921-4.159-7.911-10.728-7.127-17.123s5.639-12.274,11.938-13.632,13.478,2.4,15.391,8.554c1.053-11.862,2.266-24.22,8.572-34.322a36.349,36.349,0,0,1,26.32-16.862c10.719-1.171,22,3.251,28.69,11.712s8.322,20.76,3.64,30.473c-3.449,7.155-9.8,12.481-16.461,16.813a106.241,106.241,0,0,1-72.661,15.9"
              transform="translate(-469.2 -358.33)" fill="#f2f2f2"/>
        <path id="Path_2193"
              d="M824.217,620.392a175.3,175.3,0,0,0-51.509,69.65c-.491,1.2,1.464,1.728,1.95.537a173.351,173.351,0,0,1,50.989-68.758c1.009-.822-.429-2.245-1.43-1.43Z"
              transform="translate(-493.065 -361.175)" fill="#fff"/>
        <path id="Path_2194" d="M451.728,203.2H278.8a95.262,95.262,0,0,1,172.926,0Z"
              transform="translate(-269.493 -147.383)" fill="#e6e6e6"/>
        <path id="Path_2195"
              d="M3.284,0h8.077a3.284,3.284,0,0,1,3.284,3.284V66.566a7.322,7.322,0,0,1-7.322,7.322h0A7.322,7.322,0,0,1,0,66.566V3.284A3.284,3.284,0,0,1,3.284,0Z"
              transform="translate(169.79 140.568) rotate(-26.057)" fill="#ffc107"/>
        <path id="Path_2196"
              d="M609.838,425.823c.27-1.855-1.544-3.487-3.4-3.732a10.735,10.735,0,0,0-5.42,1.218,33.951,33.951,0,0,0-8.76,4.727c-2.565,2.124-4.539,5.215-4.519,8.546.019,3.17,1.782,6.032,3.486,8.7l15.987,25.071c1.691,2.652,3.6,5.484,6.585,6.49a9.423,9.423,0,0,0,6.044-.254,14.594,14.594,0,0,0,9.482-14.463c-.547-7.18-6.247-12.688-10.514-18.489a53.1,53.1,0,0,1-8.884-19.235"
              transform="translate(-409.358 -271.486)" fill="#2f2e41"/>
        <path id="Path_2197"
              d="M537.837,623.845a3.543,3.543,0,0,1-2.333-.872l-6.093-5.3a3.556,3.556,0,0,1-.348-5.018l44.2-50.78a3.561,3.561,0,0,1,5.018-.347l6.093,5.3a3.562,3.562,0,0,1,.347,5.019l-44.2,50.779a3.55,3.55,0,0,1-2.686,1.22Z"
              transform="translate(-382.399 -334.238)" fill="#ffc107"/>
        <path id="Path_2198"
              d="M528.642,560.812a3.562,3.562,0,0,1-3.262-2.127l-3.247-7.4a3.561,3.561,0,0,1,1.827-4.687L585.6,519.54a3.563,3.563,0,0,1,4.688,1.827l3.247,7.4a3.561,3.561,0,0,1-1.827,4.687l-61.643,27.061a3.539,3.539,0,0,1-1.425.3Z"
              transform="translate(-379.521 -315.49)" fill="#ffc107"/>
        <path id="Path_2199"
              d="M521.4,609.781l8.068.4a3.284,3.284,0,0,0,3.443-3.117l1.611-33.15a3.284,3.284,0,0,0-3.117-3.443l-8.067-.4a3.284,3.284,0,0,0-3.443,3.116l-1.611,33.15A3.284,3.284,0,0,0,521.4,609.781Z"
              transform="translate(-377.911 -338.502)" fill="#ffc107"/>
        <circle id="Ellipse_86" cx="27.911" cy="27.911" r="27.911" transform="translate(229.264 122.577)"
                fill="#ffc107"/>
        <path id="Path_2200"
              d="M640.293,482.859l.049-.23a3.283,3.283,0,0,0-1-3.111l-10.656-9.694,1.251-1.437a3.283,3.283,0,0,0-.321-4.633l-6.6-5.749a3.284,3.284,0,0,0-4.633.321l-1.03,1.183-9.66-8.788a3.284,3.284,0,0,0-3.217-.7h0a76.767,76.767,0,0,0-51.547,57.126l-.049.23a3.283,3.283,0,0,0,1,3.111l31.654,28.8a3.284,3.284,0,0,0,3.217.7h0A76.766,76.766,0,0,0,640.293,482.859Z"
              transform="translate(-393.541 -284.083)" fill="#2f2e41"/>
        <path id="Path_2201"
              d="M3.283,0h8.078a3.284,3.284,0,0,1,3.284,3.284V66.567a7.322,7.322,0,0,1-7.322,7.322h0A7.322,7.322,0,0,1,0,66.567V3.284A3.284,3.284,0,0,1,3.284,0Z"
              transform="translate(203.358 263.043) rotate(-161.761)" fill="#ffc107"/>
        <path id="Path_2202"
              d="M616.454,528.726c-1.517,1.1-1.419,3.54-.3,5.042a10.734,10.734,0,0,0,4.655,3.031,33.948,33.948,0,0,0,9.5,2.973c3.312.354,6.9-.39,9.273-2.73,2.256-2.226,3.075-5.487,3.8-8.573l6.792-28.948c.718-3.062,1.411-6.409.051-9.246a9.422,9.422,0,0,0-4.4-4.15,14.594,14.594,0,0,0-16.975,3.307c-4.76,5.4-4.724,13.33-5.9,20.435a53.1,53.1,0,0,1-7.571,19.788"
              transform="translate(-421.843 -299.863)" fill="#2f2e41"/>
        <path id="Path_2203"
              d="M708.036,425.384a6.619,6.619,0,0,1-.929-2.644,4.452,4.452,0,0,1,1.283-3.531,3,3,0,0,1,2.5-.9,3.873,3.873,0,0,1,2.847,2.352l7-8.352.839.7-8.227,9.818-.3-.95c-.35-1.1-1.137-2.332-2.3-2.486a1.923,1.923,0,0,0-1.6.6,3.363,3.363,0,0,0-.958,2.631c.177,1.662,1.29,3.076,2.617,4.621l-.83.713a18.025,18.025,0,0,1-1.946-2.574Z"
              transform="translate(-463.393 -267.079)" fill="#2f2e41"/>
        <rect id="Rectangle_413" width="1.094" height="5.895"
              transform="matrix(0.74, -0.672, 0.672, 0.74, 248.277, 138.259)" fill="#2f2e41"/>
        <rect id="Rectangle_414" width="1.094" height="5.895"
              transform="matrix(0.74, -0.672, 0.672, 0.74, 260.787, 152.033)" fill="#2f2e41"/>
        <path id="Path_2204"
              d="M749.61,390.376c-7.682-4.114-16.257-8.632-20.494-16.652a19.452,19.452,0,0,1-2.263-11.991,13.621,13.621,0,0,1,6.312-9.437c6.69-4.163,15.606-3.653,22.931-1.7a48.035,48.035,0,0,1,19.972,11.1,49.2,49.2,0,0,1,12.953,19.1,43.14,43.14,0,0,1,2.533,11.2,62.874,62.874,0,0,1-.851,15.547c-1.662,10.048-4.775,19.813-5.938,29.951-1.047,9.125-.537,18.842,4.022,27.03A31.494,31.494,0,0,0,805.024,478.2a32.886,32.886,0,0,0,21.254,1.017,29.011,29.011,0,0,0,4.917-2.014c.938-.487.109-1.9-.829-1.418a29.82,29.82,0,0,1-21.142,2.046,30.851,30.851,0,0,1-17.7-12c-5.249-7.652-6.122-17.328-5.325-26.336.908-10.257,4.066-20.118,5.861-30.223a69.609,69.609,0,0,0,1.233-15.781,44.779,44.779,0,0,0-2.217-11.771,51.292,51.292,0,0,0-32.336-32.054c-7.395-2.381-16.123-3.26-23.472-.256a16.193,16.193,0,0,0-8.672,7.71,17.947,17.947,0,0,0-.954,12.1c2.212,8.941,9.587,14.861,17.194,19.3,1.954,1.141,3.948,2.214,5.943,3.282.931.5,1.761-.918.829-1.418Z"
              transform="translate(-471.515 -237.733)" fill="#2f2e41"/>
        <path id="Path_2205"
              d="M357.563,338.462a95.814,95.814,0,1,1,95.772-95.772A95.88,95.88,0,0,1,357.563,338.462Zm0-190.449A95.022,95.022,0,0,0,271.6,202.969a94.677,94.677,0,1,0,171.932,0A95.021,95.021,0,0,0,357.563,148.013Z"
              transform="translate(-261.792 -146.924)" fill="#3f3d56"/>
        <path id="Path_2206" d="M439.735,224.672H368.9a3.31,3.31,0,0,1,0-6.619h70.839a3.31,3.31,0,0,1,0,6.619Z"
              transform="translate(-308.783 -179.133)" fill="#009688"/>
        <path id="Path_2207" d="M435.812,198.672H410.4a3.31,3.31,0,1,1,0-6.619h25.415a3.31,3.31,0,0,1,0,6.619Z"
              transform="translate(-327.572 -167.362)" fill="#009688"/>
        <path id="Path_2209"
              d="M435.223,380.119H373.745a7.194,7.194,0,0,1-7.186-7.186V333.811a7.194,7.194,0,0,1,7.186-7.186h61.478a7.194,7.194,0,0,1,7.186,7.186v39.123A7.194,7.194,0,0,1,435.223,380.119Zm-61.478-51.9a5.6,5.6,0,0,0-5.589,5.589v39.122a5.6,5.6,0,0,0,5.589,5.589h61.478a5.6,5.6,0,0,0,5.589-5.589V333.812a5.6,5.6,0,0,0-5.589-5.589Z"
              transform="translate(-309.224 -228.287)" fill="#3f3d56"/>
        <path id="Path_2210"
              d="M405.935,354.74a8.017,8.017,0,0,1-4.6-1.437l-30.848-21.568.915-1.308,30.848,21.568a6.459,6.459,0,0,0,7.276.057l31.757-21.47.894,1.323-31.757,21.47a8.016,8.016,0,0,1-4.49,1.366Z"
              transform="translate(-311.004 -230.008)" fill="#3f3d56"/>
        <circle id="Ellipse_87" cx="9.581" cy="9.581" r="9.581" transform="translate(85.281 115.105)" fill="#3f3d56"/>
        <path id="Path_2211" d="M736.238,752H494.185a.652.652,0,1,1,0-1.3H736.238a.652.652,0,1,1,0,1.3Z"
              transform="translate(-366.709 -420.277)" fill="#e6e6e6"/>
    </g>
</svg>
