<svg xmlns="http://www.w3.org/2000/svg" viewBox="0 0 830.18 200.19">
    <defs>
        <style>
            .cls-1,.cls-4{fill:#ffc107;}.cls-2{fill:#fff;}.cls-2,.cls-3,.cls-4,.cls-7,.cls-8{stroke:#231f20;}.cls-2,.cls-3,.cls-4,.cls-7{stroke-miterlimit:10;}.cls-3{fill:#231f20;}.cls-5{fill:#009688;}.cls-6{fill:#009444;}.cls-7,.cls-8{fill:none;}.cls-8{stroke-linecap:round;stroke-linejoin:round;}
        </style>
    </defs>
    <title>looper logo</title>

        <path class="cls-1"
              d="M553.87,503.56l-53.14-83.77a15,15,0,0,0-12.65-7h-96.2a1.52,1.52,0,0,0-.9.3L349.9,444.2a1.22,1.22,0,0,0-.36.39L312.27,503.7a14.79,14.79,0,0,0,0,15.78l37.33,59.29,1,1.61,14.47,23a15,15,0,0,0,11.72,7h.07c.29,0,.59,0,.89,0H487.19a16.47,16.47,0,0,0,13.9-7.64l52.77-83.09A15,15,0,0,0,553.87,503.56Zm-36.76,16.83-33,52.94a15,15,0,0,1-12.71,7H389.9a1.85,1.85,0,0,1-1.56-.85l-38.26-59a15,15,0,0,1,0-16.32l37.78-58.11a13.24,13.24,0,0,1,1.15.67,15.07,15.07,0,0,1,4.42,4.47l2.81,4.39,17.86,5.17,5.53,19a3.27,3.27,0,0,0,6.41-.9h0v-.53l.19-32.54a1.49,1.49,0,0,1,1.48-1.47h42A16.46,16.46,0,0,1,483.56,452L517,504.41A15,15,0,0,1,517.11,520.39Z"
              transform="translate(-86.2 -412.33)"/>
        <path class="cls-2" d="M388.89,580.38" transform="translate(-86.2 -412.33)"/>
        <path class="cls-3"
              d="M671.47,413.34H585.68V611.47c-1.28.76,34.21.51,34.21.51V538.7h47.75s65.1.26,66.13-60.25S671.47,413.34,671.47,413.34Zm-2,97H620.15V441.43l47,.25s32.42,1.53,32.42,34.47S669.43,510.36,669.43,510.36Z"
              transform="translate(-86.2 -412.33)"/>
        <path class="cls-3"
              d="M870.11,526.45c39.83-15.58,35.74-54.13,35.74-54.13,2-56.68-62-59-62-59H764.15V611.21h34.47V535.64h39.06l39.06,76.08h38.81ZM843,507H799.13V441.43H843.3s27.57,4.58,27.57,31.66C870.87,504.49,843,507,843,507Z"
              transform="translate(-86.2 -412.33)"/>
        <path class="cls-4" d="M388.89,580.38" transform="translate(-86.2 -412.33)"/>
        <line class="cls-1" x1="341.35" y1="168.05" x2="303.69" y2="168.05"/>


        <path class="cls-5"
              d="M463.91,519.61l-38.13,60.13a1.42,1.42,0,0,1-1.21.67s-26,.33-34.63,0h-.18l-.19,0-.22-.05-.16-.06.38-.57,36.22-56.77,1.55-2.41a15,15,0,0,0,0-16.16l-1.44-2.25-29.67-46.4-2.81-4.39a15.07,15.07,0,0,0-4.42-4.47,13.24,13.24,0,0,0-1.15-.67,14.86,14.86,0,0,0-7.05-1.77H306.06a15,15,0,0,0-12.64,6.95l-33.7,53a15,15,0,0,0,0,16.14l34.08,53a15,15,0,0,0,12.61,6.88h50.31a15.27,15.27,0,0,1,13,7.32l13.4,22a.43.43,0,0,1-.36.65h-6l-88.13,0a14.94,14.94,0,0,1-12.58-6.86l-54.15-83.88a15,15,0,0,1-.06-16.15L275,419.81a15,15,0,0,1,12.65-7H398a15,15,0,0,1,12.64,6.94l15.64,24.59,37.65,59.17A15,15,0,0,1,463.91,519.61Z"
              transform="translate(-86.2 -412.33)"/>
        <polygon class="cls-3" points="0.5 0.5 34.88 0.5 34.88 170.03 125.1 170.03 125.1 197.95 0.5 197.95 0.5 0.5"/>
        <path class="cls-6" d="M315.16,610.32" transform="translate(-86.2 -412.33)"/>
        <path class="cls-7" d="M315.16,610.32" transform="translate(-86.2 -412.33)"/>
        <path class="cls-6" d="M315.16,610.32" transform="translate(-86.2 -412.33)"/>
        <path class="cls-6" d="M315.16,610.32" transform="translate(-86.2 -412.33)"/>
        <path class="cls-6" d="M315.16,610.32" transform="translate(-86.2 -412.33)"/>
        <path class="cls-8" d="M408.23,657.94" transform="translate(-86.2 -412.33)"/>

</svg>
